<svg xmlns="http://www.w3.org/2000/svg" xmlns:xlink="http://www.w3.org/1999/xlink" width="64" zoomAndPan="magnify" viewBox="0 0 48 48" height="64" preserveAspectRatio="xMidYMid meet" version="1.0"><defs><clipPath id="7d215ba2b4"><path d="M 13 14 L 24 14 L 24 17 L 13 17 Z M 13 14 " clip-rule="nonzero"/></clipPath><clipPath id="90e8de883d"><path d="M 12.058594 7 L 39.746094 10.582031 L 36.167969 38.269531 L 8.480469 34.691406 Z M 12.058594 7 " clip-rule="nonzero"/></clipPath><clipPath id="6355d95c50"><path d="M 12.058594 7 L 39.746094 10.582031 L 36.167969 38.269531 L 8.480469 34.691406 Z M 12.058594 7 " clip-rule="nonzero"/></clipPath><clipPath id="9547797c2c"><path d="M 13 16 L 24 16 L 24 19 L 13 19 Z M 13 16 " clip-rule="nonzero"/></clipPath><clipPath id="0382d0eb57"><path d="M 12.058594 7 L 39.746094 10.582031 L 36.167969 38.269531 L 8.480469 34.691406 Z M 12.058594 7 " clip-rule="nonzero"/></clipPath><clipPath id="f2f5dc65fd"><path d="M 12.058594 7 L 39.746094 10.582031 L 36.167969 38.269531 L 8.480469 34.691406 Z M 12.058594 7 " clip-rule="nonzero"/></clipPath><clipPath id="7f4f33f6fb"><path d="M 13 17 L 24 17 L 24 20 L 13 20 Z M 13 17 " clip-rule="nonzero"/></clipPath><clipPath id="9dbca7f29f"><path d="M 12.058594 7 L 39.746094 10.582031 L 36.167969 38.269531 L 8.480469 34.691406 Z M 12.058594 7 " clip-rule="nonzero"/></clipPath><clipPath id="6bc2bf68e8"><path d="M 12.058594 7 L 39.746094 10.582031 L 36.167969 38.269531 L 8.480469 34.691406 Z M 12.058594 7 " clip-rule="nonzero"/></clipPath><clipPath id="93efe9531a"><path d="M 11 30 L 22 30 L 22 33 L 11 33 Z M 11 30 " clip-rule="nonzero"/></clipPath><clipPath id="d5ccf1dbc0"><path d="M 12.058594 7 L 39.746094 10.582031 L 36.167969 38.269531 L 8.480469 34.691406 Z M 12.058594 7 " clip-rule="nonzero"/></clipPath><clipPath id="4916677b29"><path d="M 12.058594 7 L 39.746094 10.582031 L 36.167969 38.269531 L 8.480469 34.691406 Z M 12.058594 7 " clip-rule="nonzero"/></clipPath><clipPath id="dd643ca259"><path d="M 11 31 L 19 31 L 19 34 L 11 34 Z M 11 31 " clip-rule="nonzero"/></clipPath><clipPath id="6f1efe32d5"><path d="M 12.058594 7 L 39.746094 10.582031 L 36.167969 38.269531 L 8.480469 34.691406 Z M 12.058594 7 " clip-rule="nonzero"/></clipPath><clipPath id="82a11380fd"><path d="M 12.058594 7 L 39.746094 10.582031 L 36.167969 38.269531 L 8.480469 34.691406 Z M 12.058594 7 " clip-rule="nonzero"/></clipPath><clipPath id="43f96e1b0f"><path d="M 12 23 L 20 23 L 20 25 L 12 25 Z M 12 23 " clip-rule="nonzero"/></clipPath><clipPath id="ceec221b86"><path d="M 12.058594 7 L 39.746094 10.582031 L 36.167969 38.269531 L 8.480469 34.691406 Z M 12.058594 7 " clip-rule="nonzero"/></clipPath><clipPath id="938a2d7eb9"><path d="M 12.058594 7 L 39.746094 10.582031 L 36.167969 38.269531 L 8.480469 34.691406 Z M 12.058594 7 " clip-rule="nonzero"/></clipPath><clipPath id="38a01c7e59"><path d="M 12 24 L 16 24 L 16 29 L 12 29 Z M 12 24 " clip-rule="nonzero"/></clipPath><clipPath id="2243b25945"><path d="M 12.058594 7 L 39.746094 10.582031 L 36.167969 38.269531 L 8.480469 34.691406 Z M 12.058594 7 " clip-rule="nonzero"/></clipPath><clipPath id="cea6b906c4"><path d="M 12.058594 7 L 39.746094 10.582031 L 36.167969 38.269531 L 8.480469 34.691406 Z M 12.058594 7 " clip-rule="nonzero"/></clipPath><clipPath id="4953f6e508"><path d="M 12 21 L 23 21 L 23 24 L 12 24 Z M 12 21 " clip-rule="nonzero"/></clipPath><clipPath id="2f7b091d2a"><path d="M 12.058594 7 L 39.746094 10.582031 L 36.167969 38.269531 L 8.480469 34.691406 Z M 12.058594 7 " clip-rule="nonzero"/></clipPath><clipPath id="577aed1c61"><path d="M 12.058594 7 L 39.746094 10.582031 L 36.167969 38.269531 L 8.480469 34.691406 Z M 12.058594 7 " clip-rule="nonzero"/></clipPath><clipPath id="9f7cc94bc7"><path d="M 24 15 L 31 15 L 31 22 L 24 22 Z M 24 15 " clip-rule="nonzero"/></clipPath><clipPath id="2dba088635"><path d="M 12.058594 7 L 39.746094 10.582031 L 36.167969 38.269531 L 8.480469 34.691406 Z M 12.058594 7 " clip-rule="nonzero"/></clipPath><clipPath id="8620e1a1cb"><path d="M 12.058594 7 L 39.746094 10.582031 L 36.167969 38.269531 L 8.480469 34.691406 Z M 12.058594 7 " clip-rule="nonzero"/></clipPath><clipPath id="a3593ed777"><path d="M 24 26 L 29 26 L 29 31 L 24 31 Z M 24 26 " clip-rule="nonzero"/></clipPath><clipPath id="c525f29eee"><path d="M 12.058594 7 L 39.746094 10.582031 L 36.167969 38.269531 L 8.480469 34.691406 Z M 12.058594 7 " clip-rule="nonzero"/></clipPath><clipPath id="f10249a38c"><path d="M 12.058594 7 L 39.746094 10.582031 L 36.167969 38.269531 L 8.480469 34.691406 Z M 12.058594 7 " clip-rule="nonzero"/></clipPath><clipPath id="fec9bf88a3"><path d="M 18 25 L 22 25 L 22 30 L 18 30 Z M 18 25 " clip-rule="nonzero"/></clipPath><clipPath id="b10cda8db4"><path d="M 12.058594 7 L 39.746094 10.582031 L 36.167969 38.269531 L 8.480469 34.691406 Z M 12.058594 7 " clip-rule="nonzero"/></clipPath><clipPath id="dbf9b2ecda"><path d="M 12.058594 7 L 39.746094 10.582031 L 36.167969 38.269531 L 8.480469 34.691406 Z M 12.058594 7 " clip-rule="nonzero"/></clipPath><clipPath id="853786182a"><path d="M 8 7 L 35 7 L 35 38 L 8 38 Z M 8 7 " clip-rule="nonzero"/></clipPath><clipPath id="71116e3dab"><path d="M 12.058594 7 L 39.746094 10.582031 L 36.167969 38.269531 L 8.480469 34.691406 Z M 12.058594 7 " clip-rule="nonzero"/></clipPath><clipPath id="a76f11d57d"><path d="M 12.058594 7 L 39.746094 10.582031 L 36.167969 38.269531 L 8.480469 34.691406 Z M 12.058594 7 " clip-rule="nonzero"/></clipPath><clipPath id="4af83e8b9f"><path d="M 20 13 L 39 13 L 39 29 L 20 29 Z M 20 13 " clip-rule="nonzero"/></clipPath><clipPath id="656854acaf"><path d="M 12.058594 7 L 39.746094 10.582031 L 36.167969 38.269531 L 8.480469 34.691406 Z M 12.058594 7 " clip-rule="nonzero"/></clipPath><clipPath id="567c629e82"><path d="M 12.058594 7 L 39.746094 10.582031 L 36.167969 38.269531 L 8.480469 34.691406 Z M 12.058594 7 " clip-rule="nonzero"/></clipPath><clipPath id="dcda2006f3"><path d="M 13 9 L 36 9 L 36 16 L 13 16 Z M 13 9 " clip-rule="nonzero"/></clipPath><clipPath id="b28e932d7d"><path d="M 13.328125 9.238281 L 35.914062 12.160156 L 35.445312 15.804688 L 12.855469 12.882812 Z M 13.328125 9.238281 " clip-rule="nonzero"/></clipPath><clipPath id="198ac84704"><path d="M 13.355469 9.242188 L 36.03125 12.175781 L 35.523438 16.101562 L 12.847656 13.167969 Z M 13.355469 9.242188 " clip-rule="nonzero"/></clipPath><clipPath id="860657fe81"><path d="M 15.242188 9.488281 L 33.996094 11.914062 C 35.042969 12.046875 35.777344 13.003906 35.644531 14.046875 C 35.507812 15.089844 34.550781 15.828125 33.507812 15.691406 L 14.753906 13.269531 C 13.710938 13.132812 12.976562 12.175781 13.109375 11.132812 C 13.246094 10.089844 14.199219 9.351562 15.242188 9.488281 Z M 15.242188 9.488281 " clip-rule="nonzero"/></clipPath><clipPath id="1138718f9c"><path d="M 10 9 L 36 9 L 36 40 L 10 40 Z M 10 9 " clip-rule="nonzero"/></clipPath><clipPath id="8cedd1c9da"><path d="M 13.34375 9.09375 L 35.929688 12.015625 L 32.351562 39.703125 L 9.765625 36.78125 Z M 13.34375 9.09375 " clip-rule="nonzero"/></clipPath><clipPath id="7ed60cb64f"><path d="M 13.34375 9.09375 L 36.074219 12.035156 L 32.515625 39.574219 L 9.785156 36.632812 Z M 13.34375 9.09375 " clip-rule="nonzero"/></clipPath><clipPath id="e5767ff603"><path d="M 15.53125 9.375 L 33.746094 11.730469 C 34.953125 11.886719 35.804688 12.992188 35.648438 14.199219 L 32.652344 37.367188 C 32.496094 38.574219 31.390625 39.429688 30.183594 39.273438 L 11.96875 36.917969 C 10.761719 36.761719 9.910156 35.65625 10.066406 34.449219 L 13.0625 11.28125 C 13.21875 10.074219 14.324219 9.222656 15.53125 9.375 Z M 15.53125 9.375 " clip-rule="nonzero"/></clipPath><clipPath id="805b66afd0"><path d="M 22 15 L 39 15 L 39 29 L 22 29 Z M 22 15 " clip-rule="nonzero"/></clipPath><clipPath id="8f6aa3b1fe"><path d="M 22.691406 25.648438 L 36.65625 14.882812 L 38.898438 17.792969 L 24.933594 28.558594 Z M 22.691406 25.648438 " clip-rule="nonzero"/></clipPath><clipPath id="d96f932328"><path d="M 22.707031 25.636719 L 36.429688 15.054688 L 38.757812 18.074219 L 25.03125 28.65625 Z M 22.707031 25.636719 " clip-rule="nonzero"/></clipPath><clipPath id="a52c66ee70"><path d="M 13 25 L 18 25 L 18 30 L 13 30 Z M 13 25 " clip-rule="nonzero"/></clipPath><clipPath id="749de7f201"><path d="M 13.59375 25.347656 L 17.238281 25.820312 L 16.765625 29.460938 L 13.121094 28.992188 Z M 13.59375 25.347656 " clip-rule="nonzero"/></clipPath><clipPath id="de85cb7be9"><path d="M 13.402344 25.101562 L 17.339844 25.609375 L 16.828125 29.542969 L 12.894531 29.035156 Z M 13.402344 25.101562 " clip-rule="nonzero"/></clipPath><clipPath id="030a1ae200"><path d="M 15.414062 25.582031 C 15.898438 25.644531 16.335938 25.898438 16.632812 26.285156 C 16.933594 26.667969 17.0625 27.15625 17 27.640625 C 16.9375 28.125 16.6875 28.5625 16.300781 28.859375 C 15.914062 29.15625 15.425781 29.289062 14.945312 29.226562 C 14.460938 29.164062 14.023438 28.914062 13.726562 28.527344 C 13.429688 28.140625 13.296875 27.652344 13.359375 27.167969 C 13.421875 26.6875 13.671875 26.25 14.058594 25.949219 C 14.445312 25.652344 14.933594 25.519531 15.414062 25.582031 Z M 15.414062 25.582031 " clip-rule="nonzero"/></clipPath><clipPath id="7223f57511"><path d="M 20 26 L 25 26 L 25 31 L 20 31 Z M 20 26 " clip-rule="nonzero"/></clipPath><clipPath id="f120229ba6"><path d="M 20.753906 26.273438 L 24.394531 26.746094 L 23.925781 30.386719 L 20.28125 29.917969 Z M 20.753906 26.273438 " clip-rule="nonzero"/></clipPath><clipPath id="1580b6cca0"><path d="M 20.5625 26.027344 L 24.496094 26.535156 L 23.988281 30.46875 L 20.054688 29.960938 Z M 20.5625 26.027344 " clip-rule="nonzero"/></clipPath><clipPath id="ea0d8d1f5c"><path d="M 22.574219 26.507812 C 23.058594 26.570312 23.496094 26.824219 23.792969 27.210938 C 24.089844 27.59375 24.222656 28.082031 24.160156 28.566406 C 24.097656 29.050781 23.847656 29.488281 23.460938 29.785156 C 23.074219 30.082031 22.585938 30.214844 22.105469 30.152344 C 21.621094 30.089844 21.183594 29.839844 20.882812 29.453125 C 20.585938 29.066406 20.457031 28.578125 20.515625 28.09375 C 20.578125 27.613281 20.832031 27.171875 21.21875 26.875 C 21.601562 26.578125 22.089844 26.445312 22.574219 26.507812 Z M 22.574219 26.507812 " clip-rule="nonzero"/></clipPath><clipPath id="30da223a85"><path d="M 25 16 L 31 16 L 31 22 L 25 22 Z M 25 16 " clip-rule="nonzero"/></clipPath><clipPath id="5f2ed2e1c0"><path d="M 25.808594 15.816406 L 30.910156 16.476562 L 30.25 21.578125 L 25.148438 20.917969 Z M 25.808594 15.816406 " clip-rule="nonzero"/></clipPath><clipPath id="8b209e2c63"><path d="M 25.808594 15.816406 L 31.273438 16.523438 L 30.566406 21.988281 L 25.101562 21.28125 Z M 25.808594 15.816406 " clip-rule="nonzero"/></clipPath><clipPath id="fc1e84da94"><path d="M 27.996094 16.101562 L 28.941406 16.222656 C 29.519531 16.296875 30.046875 16.597656 30.402344 17.0625 C 30.761719 17.523438 30.917969 18.109375 30.84375 18.691406 L 30.722656 19.636719 C 30.644531 20.214844 30.34375 20.742188 29.882812 21.097656 C 29.417969 21.457031 28.832031 21.613281 28.253906 21.539062 L 27.308594 21.417969 C 26.726562 21.34375 26.203125 21.039062 25.84375 20.578125 C 25.488281 20.113281 25.328125 19.527344 25.402344 18.949219 L 25.527344 18.003906 C 25.601562 17.421875 25.902344 16.898438 26.367188 16.539062 C 26.828125 16.183594 27.414062 16.023438 27.996094 16.101562 Z M 27.996094 16.101562 " clip-rule="nonzero"/></clipPath><clipPath id="cfc6e67a78"><path d="M 26 27 L 31 27 L 31 31 L 26 31 Z M 26 27 " clip-rule="nonzero"/></clipPath><clipPath id="503f43b983"><path d="M 27.054688 27.089844 L 30.699219 27.558594 L 30.226562 31.203125 L 26.585938 30.730469 Z M 27.054688 27.089844 " clip-rule="nonzero"/></clipPath><clipPath id="2889ab03f0"><path d="M 26.863281 26.84375 L 30.800781 27.351562 L 30.289062 31.285156 L 26.355469 30.777344 Z M 26.863281 26.84375 " clip-rule="nonzero"/></clipPath><clipPath id="55deba036f"><path d="M 28.875 27.324219 C 29.359375 27.386719 29.796875 27.636719 30.097656 28.023438 C 30.394531 28.410156 30.523438 28.898438 30.460938 29.382812 C 30.398438 29.863281 30.148438 30.304688 29.761719 30.601562 C 29.378906 30.898438 28.890625 31.03125 28.40625 30.96875 C 27.921875 30.90625 27.484375 30.652344 27.1875 30.265625 C 26.890625 29.882812 26.757812 29.394531 26.820312 28.910156 C 26.882812 28.425781 27.132812 27.988281 27.519531 27.691406 C 27.90625 27.394531 28.394531 27.261719 28.875 27.324219 Z M 28.875 27.324219 " clip-rule="nonzero"/></clipPath></defs><g clip-path="url(#7d215ba2b4)"><g clip-path="url(#90e8de883d)"><g clip-path="url(#6355d95c50)"><path fill="#bdebf0" d="M 23.109375 15.621094 L 14.136719 14.460938 C 13.902344 14.429688 13.683594 14.597656 13.652344 14.832031 C 13.621094 15.066406 13.789062 15.285156 14.023438 15.316406 L 23 16.476562 C 23.234375 16.507812 23.449219 16.339844 23.480469 16.105469 C 23.511719 15.867188 23.34375 15.652344 23.109375 15.621094 Z M 23.109375 15.621094 " fill-opacity="1" fill-rule="nonzero"/></g></g></g><g clip-path="url(#9547797c2c)"><g clip-path="url(#0382d0eb57)"><g clip-path="url(#f2f5dc65fd)"><path fill="#bdebf0" d="M 22.886719 17.332031 L 13.914062 16.171875 C 13.679688 16.140625 13.460938 16.308594 13.433594 16.542969 C 13.402344 16.777344 13.570312 16.996094 13.804688 17.023438 L 22.777344 18.183594 C 23.011719 18.214844 23.230469 18.046875 23.261719 17.8125 C 23.289062 17.578125 23.125 17.359375 22.886719 17.332031 Z M 22.886719 17.332031 " fill-opacity="1" fill-rule="nonzero"/></g></g></g><g clip-path="url(#7f4f33f6fb)"><g clip-path="url(#9dbca7f29f)"><g clip-path="url(#6bc2bf68e8)"><path fill="#bdebf0" d="M 22.667969 19.039062 L 13.695312 17.878906 C 13.457031 17.847656 13.242188 18.015625 13.210938 18.25 C 13.179688 18.488281 13.347656 18.703125 13.582031 18.734375 L 22.558594 19.894531 C 22.792969 19.925781 23.007812 19.757812 23.039062 19.523438 C 23.070312 19.289062 22.902344 19.070312 22.667969 19.039062 Z M 22.667969 19.039062 " fill-opacity="1" fill-rule="nonzero"/></g></g></g><g clip-path="url(#93efe9531a)"><g clip-path="url(#d5ccf1dbc0)"><g clip-path="url(#4916677b29)"><path fill="#bdebf0" d="M 21.464844 31.703125 C 21.496094 31.464844 21.328125 31.25 21.09375 31.21875 L 12.117188 30.058594 C 11.882812 30.027344 11.667969 30.195312 11.636719 30.429688 C 11.605469 30.664062 11.773438 30.882812 12.007812 30.914062 L 20.980469 32.074219 C 21.21875 32.105469 21.433594 31.9375 21.464844 31.703125 Z M 21.464844 31.703125 " fill-opacity="1" fill-rule="nonzero"/></g></g></g><g clip-path="url(#dd643ca259)"><g clip-path="url(#6f1efe32d5)"><g clip-path="url(#82a11380fd)"><path fill="#bdebf0" d="M 11.898438 31.769531 C 11.664062 31.738281 11.445312 31.90625 11.414062 32.140625 C 11.386719 32.375 11.550781 32.59375 11.789062 32.621094 L 17.984375 33.421875 C 18.21875 33.453125 18.4375 33.285156 18.464844 33.050781 C 18.496094 32.816406 18.328125 32.597656 18.09375 32.570312 Z M 11.898438 31.769531 " fill-opacity="1" fill-rule="nonzero"/></g></g></g><g clip-path="url(#43f96e1b0f)"><g clip-path="url(#ceec221b86)"><g clip-path="url(#938a2d7eb9)"><path fill="#bdebf0" d="M 19.089844 24.878906 C 19.324219 24.90625 19.539062 24.738281 19.570312 24.503906 C 19.601562 24.269531 19.433594 24.054688 19.199219 24.023438 L 13.003906 23.222656 C 12.769531 23.191406 12.550781 23.359375 12.519531 23.59375 C 12.488281 23.828125 12.65625 24.046875 12.890625 24.074219 Z M 19.089844 24.878906 " fill-opacity="1" fill-rule="nonzero"/></g></g></g><g clip-path="url(#38a01c7e59)"><g clip-path="url(#2243b25945)"><g clip-path="url(#cea6b906c4)"><path fill="#bdebf0" d="M 12.023438 27.4375 C 11.960938 27.910156 12.296875 28.34375 12.765625 28.40625 L 14.476562 28.625 C 14.945312 28.6875 15.382812 28.351562 15.441406 27.882812 L 15.664062 26.171875 C 15.722656 25.703125 15.386719 25.269531 14.917969 25.207031 L 13.210938 24.984375 C 12.738281 24.925781 12.304688 25.261719 12.242188 25.730469 Z M 13.097656 25.839844 L 14.808594 26.0625 L 14.585938 27.769531 L 12.878906 27.550781 Z M 13.097656 25.839844 " fill-opacity="1" fill-rule="nonzero"/></g></g></g><g clip-path="url(#4953f6e508)"><g clip-path="url(#2f7b091d2a)"><g clip-path="url(#577aed1c61)"><path fill="#bdebf0" d="M 21.863281 23.238281 L 22.539062 22.714844 L 13.222656 21.511719 C 12.988281 21.480469 12.773438 21.648438 12.742188 21.882812 C 12.710938 22.117188 12.878906 22.335938 13.113281 22.367188 L 21.617188 23.464844 C 21.695312 23.367188 21.769531 23.289062 21.863281 23.238281 Z M 21.863281 23.238281 " fill-opacity="1" fill-rule="nonzero"/></g></g></g><g clip-path="url(#9f7cc94bc7)"><g clip-path="url(#2dba088635)"><g clip-path="url(#8620e1a1cb)"><path fill="#bdebf0" d="M 30.792969 16.332031 C 30.730469 15.976562 30.441406 15.699219 30.058594 15.652344 L 25.785156 15.097656 C 25.3125 15.039062 24.878906 15.371094 24.820312 15.84375 L 24.265625 20.117188 C 24.214844 20.5 24.433594 20.832031 24.738281 21.003906 L 25.65625 20.296875 L 25.121094 20.226562 L 25.671875 15.953125 L 29.945312 16.503906 L 29.878906 17.039062 Z M 30.792969 16.332031 " fill-opacity="1" fill-rule="nonzero"/></g></g></g><g clip-path="url(#a3593ed777)"><g clip-path="url(#c525f29eee)"><g clip-path="url(#f10249a38c)"><path fill="#bdebf0" d="M 25.367188 28.230469 L 24.945312 28.304688 L 24.84375 29.097656 C 24.78125 29.566406 25.117188 30 25.585938 30.0625 L 27.296875 30.28125 C 27.765625 30.34375 28.199219 30.007812 28.261719 29.539062 L 28.484375 27.828125 C 28.542969 27.359375 28.207031 26.925781 27.738281 26.863281 L 27.417969 26.824219 L 26.453125 27.566406 L 27.628906 27.71875 L 27.40625 29.429688 L 25.699219 29.207031 L 25.847656 28.03125 C 25.707031 28.121094 25.546875 28.1875 25.367188 28.230469 Z M 25.367188 28.230469 " fill-opacity="1" fill-rule="nonzero"/></g></g></g><g clip-path="url(#fec9bf88a3)"><g clip-path="url(#b10cda8db4)"><g clip-path="url(#dbf9b2ecda)"><path fill="#bdebf0" d="M 20.128906 26.75 L 20.496094 25.929688 L 19.617188 25.816406 C 19.148438 25.753906 18.714844 26.089844 18.652344 26.558594 L 18.433594 28.269531 C 18.371094 28.738281 18.707031 29.171875 19.175781 29.234375 L 20.886719 29.453125 C 21.269531 29.503906 21.648438 29.269531 21.78125 28.917969 L 21.359375 28.992188 C 21.222656 29.042969 21.070312 29.042969 20.941406 29.027344 C 20.601562 28.984375 20.316406 28.816406 20.089844 28.546875 C 20.074219 28.523438 20.054688 28.5 20.035156 28.476562 L 19.289062 28.378906 L 19.507812 26.667969 Z M 20.128906 26.75 " fill-opacity="1" fill-rule="nonzero"/></g></g></g><g clip-path="url(#853786182a)"><g clip-path="url(#71116e3dab)"><g clip-path="url(#a76f11d57d)"><path fill="#bdebf0" d="M 33.738281 14.0625 L 34.054688 11.605469 C 34.175781 10.664062 33.507812 9.796875 32.566406 9.675781 L 13.765625 7.246094 C 12.824219 7.121094 11.957031 7.792969 11.835938 8.734375 L 8.742188 32.664062 C 8.621094 33.601562 9.289062 34.472656 10.230469 34.59375 L 29.03125 37.023438 C 29.972656 37.144531 30.839844 36.476562 30.960938 35.535156 L 32.605469 22.824219 L 31.640625 23.566406 L 30.105469 35.425781 C 30.046875 35.894531 29.613281 36.230469 29.140625 36.167969 L 10.339844 33.738281 C 9.871094 33.679688 9.535156 33.242188 9.59375 32.773438 L 12.414062 10.980469 L 32.925781 13.632812 L 32.773438 14.808594 Z M 12.523438 10.125 L 12.691406 8.84375 C 12.75 8.375 13.183594 8.039062 13.65625 8.097656 L 32.457031 10.53125 C 32.925781 10.589844 33.261719 11.023438 33.203125 11.496094 L 33.035156 12.777344 Z M 12.523438 10.125 " fill-opacity="1" fill-rule="nonzero"/></g></g></g><g clip-path="url(#4af83e8b9f)"><g clip-path="url(#656854acaf)"><g clip-path="url(#567c629e82)"><path fill="#bdebf0" d="M 36.253906 13.757812 C 36.105469 13.566406 35.847656 13.53125 35.65625 13.679688 L 22.386719 23.914062 C 22.335938 23.949219 22.285156 24.007812 22.257812 24.070312 L 20.71875 27.5625 C 20.65625 27.707031 20.675781 27.886719 20.769531 28.003906 C 20.84375 28.101562 20.945312 28.160156 21.050781 28.171875 C 21.09375 28.179688 21.136719 28.183594 21.183594 28.167969 L 25.195312 27.382812 C 25.261719 27.371094 25.332031 27.335938 25.378906 27.296875 L 38.410156 17.25 C 38.601562 17.101562 38.636719 16.847656 38.488281 16.652344 Z M 21.835938 27.164062 L 23 24.535156 L 23.046875 24.5 L 24.683594 26.621094 Z M 25.4375 26.175781 L 23.726562 23.957031 L 34.148438 15.917969 L 35.863281 18.140625 Z M 36.539062 17.617188 L 34.824219 15.398438 L 35.839844 14.617188 L 37.550781 16.835938 Z M 36.539062 17.617188 " fill-opacity="1" fill-rule="nonzero"/></g></g></g><g clip-path="url(#dcda2006f3)"><g clip-path="url(#b28e932d7d)"><g clip-path="url(#198ac84704)"><g clip-path="url(#860657fe81)"><path stroke-linecap="butt" transform="matrix(0.728629, 0.0942081, -0.0942081, 0.728629, 13.354094, 9.243687)" fill="none" stroke-linejoin="miter" d="M 2.59138 0.000639064 L 28.330184 0.00197932 C 29.766514 -0.00145384 30.924862 1.162247 30.927613 2.593304 C 30.925091 4.025043 29.762073 5.188663 28.330334 5.186142 L 2.592211 5.190074 C 1.160472 5.187553 0.00212478 4.023852 -0.000626619 2.592795 C 0.00189493 1.161056 1.159641 -0.00188249 2.59138 0.000639064 Z M 2.59138 0.000639064 " stroke="#000000" stroke-width="2" stroke-opacity="1" stroke-miterlimit="4"/></g></g></g></g><g clip-path="url(#1138718f9c)"><g clip-path="url(#8cedd1c9da)"><g clip-path="url(#7ed60cb64f)"><g clip-path="url(#e5767ff603)"><path stroke-linecap="butt" transform="matrix(0.728629, 0.0942081, -0.0942081, 0.728629, 13.344727, 9.094314)" fill="none" stroke-linejoin="miter" d="M 3.000521 -0.00272828 L 27.999386 -0.00221708 C 29.655998 -0.00196496 30.998441 1.341654 30.998189 2.998266 L 30.997394 34.795041 C 30.997142 36.451653 29.654204 37.799368 27.997592 37.799116 L 2.998726 37.798605 C 1.342115 37.798353 -0.000328174 36.454733 -0.0000760531 34.798122 L 0.00071889 3.001347 C 0.000971011 1.344735 1.34459 0.00229255 3.000521 -0.00272828 Z M 3.000521 -0.00272828 " stroke="#000000" stroke-width="2" stroke-opacity="1" stroke-miterlimit="4"/></g></g></g></g><g clip-path="url(#805b66afd0)"><g clip-path="url(#8f6aa3b1fe)"><g clip-path="url(#d96f932328)"><path stroke-linecap="butt" transform="matrix(0.581834, -0.448603, 0.448603, 0.581834, 22.705449, 25.638165)" fill="none" stroke-linejoin="miter" d="M 0.00290694 -0.000243591 L 23.589462 -0.00201192 L 23.589481 5.187685 L -0.00128494 5.186207 Z M 0.00290694 -0.000243591 " stroke="#000000" stroke-width="2" stroke-opacity="1" stroke-miterlimit="4"/></g></g></g><g clip-path="url(#a52c66ee70)"><g clip-path="url(#749de7f201)"><g clip-path="url(#de85cb7be9)"><g clip-path="url(#030a1ae200)"><path stroke-linecap="butt" transform="matrix(0.728629, 0.0942081, -0.0942081, 0.728629, 13.593906, 25.348231)" fill="none" stroke-linejoin="miter" d="M 2.497789 -0.00207522 C 3.162543 -0.00224708 3.797428 0.264137 4.265667 0.734344 C 4.738497 1.198597 4.997725 1.835218 4.997897 2.499971 C 4.998069 3.164725 4.736958 3.798929 4.26675 4.267168 C 3.796542 4.735407 3.160604 4.999908 2.501123 4.999398 C 1.836369 4.99957 1.202166 4.738459 0.733927 4.268251 C 0.265688 3.798043 0.00118681 3.162105 0.00101495 2.497351 C 0.00152486 1.83787 0.262636 1.203667 0.732162 0.730155 C 1.202369 0.261916 1.838308 -0.00258513 2.497789 -0.00207522 Z M 2.497789 -0.00207522 " stroke="#000000" stroke-width="2" stroke-opacity="1" stroke-miterlimit="4"/></g></g></g></g><g clip-path="url(#7223f57511)"><g clip-path="url(#f120229ba6)"><g clip-path="url(#1580b6cca0)"><g clip-path="url(#ea0d8d1f5c)"><path stroke-linecap="butt" transform="matrix(0.728629, 0.0942081, -0.0942081, 0.728629, 20.753068, 26.273876)" fill="none" stroke-linejoin="miter" d="M 2.499155 -0.00206405 C 3.163908 -0.00223591 3.798794 0.264148 4.267032 0.734356 C 4.73459 1.19929 4.999091 1.835229 4.999263 2.499983 C 4.999434 3.164737 4.738324 3.79894 4.268116 4.267179 C 3.797908 4.735418 3.16197 4.999919 2.502489 4.999409 C 1.837735 4.999581 1.203532 4.73847 0.73002 4.268944 C 0.261781 3.798736 0.00255271 3.162116 -0.0028921 2.498044 C -0.00238219 1.838563 0.26332 1.198405 0.733528 0.730166 C 1.198462 0.262609 1.834401 -0.00189219 2.499155 -0.00206405 Z M 2.499155 -0.00206405 " stroke="#000000" stroke-width="2" stroke-opacity="1" stroke-miterlimit="4"/></g></g></g></g><path stroke-linecap="round" transform="matrix(0.728629, 0.0942081, -0.0942081, 0.728629, 14.77125, 16.242365)" fill="none" stroke-linejoin="miter" d="M 0.501617 0.497815 L 13.025118 0.49764 " stroke="#000000" stroke-width="1" stroke-opacity="1" stroke-miterlimit="4"/><path stroke-linecap="round" transform="matrix(0.728629, 0.0942081, -0.0942081, 0.728629, 14.484044, 18.463685)" fill="none" stroke-linejoin="miter" d="M 0.499344 0.499942 L 13.022845 0.499767 " stroke="#000000" stroke-width="1" stroke-opacity="1" stroke-miterlimit="4"/><path stroke-linecap="round" transform="matrix(0.728629, 0.0942081, -0.0942081, 0.728629, 15.053874, 14.056478)" fill="none" stroke-linejoin="miter" d="M 0.500161 0.50115 L 13.023662 0.500974 " stroke="#000000" stroke-width="1" stroke-opacity="1" stroke-miterlimit="4"/><path stroke-linecap="round" transform="matrix(0.728629, 0.0942081, -0.0942081, 0.728629, 13.712092, 31.882634)" fill="none" stroke-linejoin="miter" d="M 0.50244 0.498198 L 13.025941 0.498022 " stroke="#000000" stroke-width="1" stroke-opacity="1" stroke-miterlimit="4"/><path stroke-linecap="round" transform="matrix(0.728629, 0.0942081, -0.0942081, 0.728629, 15.514043, 30.337678)" fill="none" stroke-linejoin="miter" d="M 0.501208 0.501084 L 13.024709 0.500908 " stroke="#000000" stroke-width="1" stroke-opacity="1" stroke-miterlimit="4"/><g clip-path="url(#30da223a85)"><g clip-path="url(#5f2ed2e1c0)"><g clip-path="url(#8b209e2c63)"><g clip-path="url(#fc1e84da94)"><path stroke-linecap="butt" transform="matrix(0.728629, 0.0942081, -0.0942081, 0.728629, 25.809077, 15.817478)" fill="none" stroke-linejoin="miter" d="M 3.001781 0.00177337 L 4.29897 0.0002473 C 5.09232 -0.000468106 5.856664 0.31351 6.417632 0.878951 C 6.983192 1.438436 7.296375 2.202108 7.297772 3.000731 L 7.299298 4.297919 C 7.294741 5.091951 6.980762 5.856295 6.420595 6.416582 C 5.855836 6.982823 5.092165 7.296006 4.298815 7.296722 L 3.001626 7.298248 C 2.203003 7.299645 1.443251 6.979712 0.877691 6.420226 C 0.316722 5.854786 -0.00173362 5.091796 -0.00244902 4.298446 L 0.00129786 3.000576 C -0.0000993141 2.201953 0.314561 1.442882 0.879319 0.87664 C 1.439487 0.316353 2.202477 -0.00210241 3.001781 0.00177337 Z M 3.001781 0.00177337 " stroke="#000000" stroke-width="2" stroke-opacity="1" stroke-miterlimit="4"/></g></g></g></g><g clip-path="url(#cfc6e67a78)"><g clip-path="url(#503f43b983)"><g clip-path="url(#2889ab03f0)"><g clip-path="url(#55deba036f)"><path stroke-linecap="butt" transform="matrix(0.728629, 0.0942081, -0.0942081, 0.728629, 27.05521, 27.088713)" fill="none" stroke-linejoin="miter" d="M 2.497592 0.000290922 C 3.162346 0.000119062 3.796549 0.26123 4.270061 0.730756 C 4.7383 1.200963 4.997528 1.837584 4.9977 2.502338 C 4.99719 3.161819 4.736761 3.801295 4.266553 4.269534 C 3.801619 4.737091 3.16568 5.001592 2.500926 5.001764 C 1.836172 5.001936 1.201287 4.735552 0.733048 4.265344 C 0.265491 3.80041 0.000990239 3.164471 0.00081838 2.499717 C 0.000646521 1.834963 0.261757 1.20076 0.731965 0.732521 C 1.202173 0.264282 1.838111 -0.000218985 2.497592 0.000290922 Z M 2.497592 0.000290922 " stroke="#000000" stroke-width="2" stroke-opacity="1" stroke-miterlimit="4"/></g></g></g></g></svg>